<svg id="Capa_1" data-name="Capa 1" xmlns="http://www.w3.org/2000/svg" viewBox="0 0 109.34 109.34"><defs><style>.cls-1{fill:#dc0814;}.cls-2{fill:#fff;}</style></defs><title>casita</title><path class="cls-1" d="M374.58,243.18s-7.88,0-7.88,7.88v93.58s0,7.88,7.88,7.88h93.57s7.88,0,7.88-7.88V251.06s0-7.88-7.88-7.88Z" transform="translate(-366.7 -243.18)"/><path class="cls-2" d="M421.37,268.72l-46,46,7.74,7.73L394,311.52v32.8H405V300.58l10.94-10.93v54.67h10.93V289.65l10.94,10.93v43.74H448.7v-32.8l10.94,10.93,7.73-7.73-46-46Zm-19.61,13.2a7.73,7.73,0,1,0-7.73,7.73,7.73,7.73,0,0,0,7.73-7.73m27.34-22.81a7.73,7.73,0,1,0-7.73,7.73,7.74,7.74,0,0,0,7.73-7.73m27.33,22.81a7.73,7.73,0,1,0-7.73,7.73,7.73,7.73,0,0,0,7.73-7.73" transform="translate(-366.7 -243.18)"/></svg>