<svg id="Capa_1" data-name="Capa 1" xmlns="http://www.w3.org/2000/svg" viewBox="0 0 584.82 378.69"><defs><style>.cls-1{fill:#db001b;}.cls-2,.cls-3{fill:#fff;}.cls-3{font-size:50.81px;font-family:DecimaNovaPro, Decima Nova Pro;}</style></defs><title>logo-vertical-blanco</title><path class="cls-1" d="M352.75,204.49s-13.24,0-13.24,13.24V374.91s0,13.23,13.24,13.23H509.93s13.24,0,13.24-13.23V217.73s0-13.24-13.24-13.24Z" transform="translate(-138.93 -204.49)"/><path class="cls-2" d="M431.34,247.39l-77.27,77.26,13,13,18.37-18.37v55.1h18.36V300.91l18.37-18.37v91.83h18.36V282.54l18.37,18.37v73.46h18.37v-55.1l18.36,18.37,13-13-77.27-77.26Zm-32.93,22.17a13,13,0,1,0-13,13,13,13,0,0,0,13-13m45.91-38.32a13,13,0,1,0-13,13,13,13,0,0,0,13-13m45.91,38.32a13,13,0,1,0-13,13,13,13,0,0,0,13-13" transform="translate(-138.93 -204.49)"/><text class="cls-3" transform="translate(0 366.4)">VILLAMURIEL DE CERRATO</text><path class="cls-2" d="M423.82,456.17a13,13,0,0,0-12.95-13H394.53a13,13,0,0,0-12.95,13c0,7.91,7.92,12.95,7.92,12.95l25.92,16.39H380a13,13,0,0,0,12.94,13h22.51a13,13,0,0,0,12.95-13c0-7.9-7.92-12.95-7.92-12.95l-25.93-16.39h29.23" transform="translate(-138.93 -204.49)"/><path class="cls-2" d="M653.54,472.56l-24.39-16.39H655a13,13,0,0,0-13-13H629.09a13,13,0,0,0-13,13c0,7.91,7.92,12.95,7.92,12.95l24.39,16.39H616.14a13,13,0,0,0,12.94,13h19.43a13,13,0,0,0,13-13c0-7.91-7.92-12.95-7.92-12.95" transform="translate(-138.93 -204.49)"/><path class="cls-2" d="M245.25,456.17a13,13,0,0,0-12.95-13h-13a13,13,0,0,0-12.95,13c0,5.7,7.92,12.95,7.92,12.95l18.15,16.39H200.15a13,13,0,0,0,12.94,13h19.43a13,13,0,0,0,12.95-13c0-5.68-7.92-12.95-7.92-12.95L219.4,456.17Z" transform="translate(-138.93 -204.49)"/><path class="cls-2" d="M554.85,498.5V457.89q0-15.33-15.83-15.33a92,92,0,0,0-14.87,1.17,72,72,0,0,0-7.31,1.59,12.87,12.87,0,0,0-8-2.76V498.5h13V456a92.8,92.8,0,0,1,15.78-1.79,4.24,4.24,0,0,1,4.3,4.3v40Z" transform="translate(-138.93 -204.49)"/><path class="cls-2" d="M436.08,435.82H449V422.87H436.08ZM449,499.12V443.18H436.08v43A13,13,0,0,0,449,499.12" transform="translate(-138.93 -204.49)"/><path class="cls-2" d="M303.21,435.82V422.87a13,13,0,0,1,13,12.95v63.3a12.76,12.76,0,0,1-13-12.72Z" transform="translate(-138.93 -204.49)"/><path class="cls-2" d="M594.57,485.3c-.79.78-3.36,2.16-8.46,2.16s-7.67-1.38-8.45-2.16-2-2.57-2-14.47,1.25-13.72,2-14.5,3.36-2.17,8.45-2.17,7.67,1.39,8.46,2.17,2,2.71,2,14.51-1.26,13.68-2,14.46m15-14.46c0-15.61-2.22-21.24-4.57-23.59s-5.93-4.69-18.87-4.69-16.52,2.35-18.86,4.69-4.56,7.53-4.56,23.59,2.21,21.24,4.56,23.59,5.9,4.69,18.83,4.69,16.56-2.35,18.9-4.69,4.57-8,4.57-23.59" transform="translate(-138.93 -204.49)"/><path class="cls-2" d="M358,456.33c.63.63,1.56,2,1.9,8.71H339.14c.34-6.77,1.28-8.08,1.91-8.71s3.36-2.16,8.45-2.16,7.67,1.38,8.45,2.16m15,14.51c0-15.61-2.22-21.24-4.56-23.59s-5.93-4.69-18.87-4.69-16.52,2.35-18.87,4.69-4.56,7.53-4.56,23.59,2.22,21.24,4.56,23.59,5.9,4.69,18.83,4.69,16.57-2.35,18.91-4.69c1.38-1.38,2.7-3.91,3.57-8.92H357.7c-1,.79-3.53,1.95-8.2,1.95-5.09,0-7.67-1.38-8.45-2.16s-1.56-1.93-1.9-8.66h33.66c.08-1.76.12-3.68.12-5.8" transform="translate(-138.93 -204.49)"/><path class="cls-2" d="M280.36,487.6c-.4.09-.8.18-1.21.25-8,1.42-15.23-1.19-16-5.84s5-9.56,13.09-11a25.35,25.35,0,0,1,4.17-.38Zm12.95,11.52V457.87q0-15.31-15.83-15.32a92,92,0,0,0-14.87,1.17c-2,.32-4.09.78-6.21,1.32v10.19c5.88-1.08,14.73-2,19.66-1.07,3,.56,4.3,2.58,4.3,4.3v1.34a39.5,39.5,0,0,0-6.05.57c-15.09,2.66-25.82,13.36-24,23.89s15.6,16.92,30.69,14.25a38.09,38.09,0,0,0,5.4-1.38,12.93,12.93,0,0,0,6.88,2" transform="translate(-138.93 -204.49)"/><path class="cls-2" d="M486,487.6c-.39.09-.79.18-1.21.25-8,1.42-15.23-1.19-16.05-5.84s5.05-9.56,13.09-11a25.35,25.35,0,0,1,4.17-.38ZM499,499.12V457.87q0-15.31-15.83-15.32a92.07,92.07,0,0,0-14.87,1.17c-2,.32-4.08.78-6.2,1.32v10.19c5.88-1.08,14.73-2,19.65-1.07,3,.56,4.3,2.58,4.3,4.3v1.34a39.74,39.74,0,0,0-6.05.57c-15.09,2.66-25.82,13.36-24,23.89s15.6,16.92,30.69,14.25a38.44,38.44,0,0,0,5.4-1.38,12.9,12.9,0,0,0,6.87,2" transform="translate(-138.93 -204.49)"/></svg>