<svg id="Capa_1" data-name="Capa 1" xmlns="http://www.w3.org/2000/svg" viewBox="0 0 408.97 72.16"><defs><style>.cls-1,.cls-3{fill:#db001b;}.cls-2{fill:#fff;}.cls-3{font-size:28.17px;font-family:DecimaNovaPro, Decima Nova Pro;}.cls-4{font-size:32.81px;font-family:DecimaNovaPro-BoldItalic, Decima Nova Pro;font-weight:700;font-style:italic;}.cls-4,.cls-5{fill:#51616f;}</style></defs><title>logo</title><path class="cls-1" d="M72.22,242.76s-4.07,0-4.07,4.06V295.1s0,4.06,4.07,4.06H120.5s4.06,0,4.06-4.06V246.82s0-4.06-4.06-4.06Z" transform="translate(-68.15 -233.78)"/><path class="cls-2" d="M96.36,255.93,72.63,279.66l4,4L82.26,278v16.92H87.9V272.37l5.64-5.64v28.2h5.64v-28.2l5.64,5.64v22.56h5.64V278l5.64,5.64,4-4L96.36,255.93Zm-10.12,6.81a4,4,0,1,0-4,4,4,4,0,0,0,4-4M100.34,251a4,4,0,1,0-4,4,4,4,0,0,0,4-4m14.11,11.76a4,4,0,1,0-4,4,4,4,0,0,0,4-4" transform="translate(-68.15 -233.78)"/><text class="cls-3" transform="translate(72.39 65.35)">VILLAMURIEL DE CERRATO</text><text class="cls-4" transform="translate(401.75 31.78)"> </text><path class="cls-5" d="M239.47,248.52a5.74,5.74,0,0,0-5.73-5.75h-7.23a5.73,5.73,0,0,0-5.73,5.75c0,3.5,3.51,5.73,3.51,5.73l11.47,7.25H220.1a5.74,5.74,0,0,0,5.73,5.75h10a5.73,5.73,0,0,0,5.72-5.75c0-3.5-3.5-5.73-3.5-5.73l-11.47-7.25h12.93" transform="translate(-68.15 -233.78)"/><path class="cls-5" d="M341.11,255.77l-10.79-7.25h11.43a5.74,5.74,0,0,0-5.73-5.75h-5.73a5.73,5.73,0,0,0-5.73,5.75c0,3.49,3.5,5.73,3.5,5.73l10.8,7.25h-14.3a5.75,5.75,0,0,0,5.73,5.75h8.59a5.73,5.73,0,0,0,5.73-5.75c0-3.5-3.5-5.73-3.5-5.73" transform="translate(-68.15 -233.78)"/><path class="cls-5" d="M160.47,248.52a5.75,5.75,0,0,0-5.73-5.75H149a5.73,5.73,0,0,0-5.73,5.75c0,2.52,3.5,5.73,3.5,5.73l8,7.25h-14.3a5.74,5.74,0,0,0,5.73,5.75h8.59a5.73,5.73,0,0,0,5.73-5.75c0-2.51-3.5-5.73-3.5-5.73l-8-7.25Z" transform="translate(-68.15 -233.78)"/><path class="cls-5" d="M297.45,267.25v-18q0-6.79-7-6.79a40.23,40.23,0,0,0-6.58.52,32.45,32.45,0,0,0-3.23.7,5.74,5.74,0,0,0-3.53-1.22v24.76h5.73V248.42a41.21,41.21,0,0,1,7-.79,1.88,1.88,0,0,1,1.9,1.9v17.72Z" transform="translate(-68.15 -233.78)"/><path class="cls-5" d="M244.9,239.51h5.73v-5.73H244.9Zm5.73,28V242.77H244.9v19a5.73,5.73,0,0,0,5.73,5.74" transform="translate(-68.15 -233.78)"/><path class="cls-5" d="M186.11,239.51v-5.73a5.73,5.73,0,0,1,5.73,5.73v28a5.65,5.65,0,0,1-5.73-5.64V239.51" transform="translate(-68.15 -233.78)"/><path class="cls-5" d="M315,261.41c-.35.34-1.49.95-3.74.95s-3.4-.61-3.74-.95-.9-1.14-.9-6.41.55-6.07.9-6.41,1.48-1,3.74-1,3.39.61,3.74,1,.9,1.2.9,6.42-.56,6.05-.9,6.4m6.62-6.4c0-6.91-1-9.4-2-10.44s-2.63-2.08-8.36-2.08-7.3,1-8.34,2.08-2,3.33-2,10.44,1,9.4,2,10.44,2.61,2.08,8.33,2.08,7.33-1,8.37-2.08,2-3.53,2-10.44" transform="translate(-68.15 -233.78)"/><path class="cls-5" d="M210.33,248.59c.28.27.69.89.84,3.85H202c.15-3,.56-3.58.84-3.85s1.48-1,3.74-1,3.39.61,3.74,1M217,255c0-6.91-1-9.4-2-10.44s-2.63-2.08-8.35-2.08-7.31,1-8.35,2.08-2,3.33-2,10.44,1,9.4,2,10.44,2.61,2.08,8.34,2.08,7.32-1,8.36-2.08c.61-.61,1.19-1.74,1.58-3.95h-6.3a6,6,0,0,1-3.63.86c-2.26,0-3.39-.61-3.74-.95s-.69-.86-.84-3.83H216.9c0-.79,0-1.63,0-2.57" transform="translate(-68.15 -233.78)"/><path class="cls-5" d="M176,262.43l-.54.11c-3.56.63-6.74-.53-7.1-2.59s2.23-4.23,5.79-4.86a10.76,10.76,0,0,1,1.85-.16Zm5.73,5.1V249.27q0-6.78-7-6.78a41.47,41.47,0,0,0-6.58.51c-.88.15-1.8.35-2.74.59v4.51c2.6-.48,6.52-.89,8.69-.48a2.07,2.07,0,0,1,1.91,1.91v.59a17.82,17.82,0,0,0-2.68.25c-6.68,1.18-11.42,5.92-10.6,10.58s6.9,7.49,13.58,6.31a16.27,16.27,0,0,0,2.38-.62,5.7,5.7,0,0,0,3,.89" transform="translate(-68.15 -233.78)"/><path class="cls-5" d="M267,262.43l-.53.11c-3.56.63-6.74-.53-7.11-2.59s2.23-4.23,5.8-4.86a10.73,10.73,0,0,1,1.84-.16Zm5.73,5.1V249.27q0-6.78-7-6.78a41.29,41.29,0,0,0-6.58.51c-.89.15-1.81.35-2.75.59v4.51c2.61-.48,6.52-.89,8.7-.48a2.07,2.07,0,0,1,1.9,1.91v.59a17.57,17.57,0,0,0-2.67.25c-6.68,1.18-11.43,5.92-10.61,10.58s6.9,7.49,13.58,6.31a16.74,16.74,0,0,0,2.39-.62,5.64,5.64,0,0,0,3,.89" transform="translate(-68.15 -233.78)"/></svg>